<?xml version="1.0" encoding="UTF-8"?>
<svg xmlns="http://www.w3.org/2000/svg" width="261" height="50" viewBox="0 0 261 50" fill="none">
  <mask id="mask0_42_104" style="mask-type:luminance" maskUnits="userSpaceOnUse" x="0" y="0" width="50" height="50">
    <path d="M12.7044 0C5.68993 0 0 5.68993 0 12.7044V37.2956C0 44.3101 5.68993 50 12.7044 50H37.2956C44.3101 50 50 44.3101 50 37.2956V12.7044C50 5.68993 44.3101 0 37.2956 0H12.7044Z" fill="white"></path>
  </mask>
  <g mask="url(#mask0_42_104)">
    <path d="M57.0273 -85.7666L83.9928 57.0274L-58.8013 83.9929L-85.7667 -58.8012L57.0273 -85.7666Z" fill="url(#paint0_linear_42_104)"></path>
    <path d="M33.1131 33.289C31.7244 33.4469 30.9597 35.1251 31.8528 36.2351C33.0106 37.6738 35.2775 36.7239 35.1303 34.9148C35.0492 33.9187 34.0934 33.1775 33.1131 33.289ZM18.0857 36.3419C19.6713 34.6042 17.0543 32.1594 15.4331 33.8116C13.6953 35.5827 16.4258 38.161 18.0857 36.3419ZM16.9393 31.3557C16.9915 31.4082 17.3407 31.5402 17.4501 31.6031C20.1642 33.1621 20.2441 36.0883 22.6374 37.5234C24.2953 38.5173 25.6502 38.4796 27.3164 37.5232C28.9408 36.5909 29.2114 35.3705 30.1677 33.9155C30.8077 32.9417 31.4831 32.2269 32.5039 31.652C32.6624 31.5627 33.1104 31.3997 33.2008 31.3212C33.3626 31.1807 33.2333 30.8377 33.222 30.6577C33.0466 27.8504 32.1766 25.9656 29.3184 25.2153C27.0279 24.614 23.0828 24.5915 20.7925 25.1762C18.2727 25.8196 17.2652 27.1988 16.8919 29.741C16.8484 30.0365 16.7508 31.1663 16.9393 31.3557ZM29.0457 23.1307C29.1291 22.9972 29.1985 22.7435 29.2118 22.5858L29.2117 16.0737C29.1775 15.5485 28.7554 15.1909 28.2562 15.1209C26.1726 15.2442 23.9052 14.959 21.8434 15.1196C21.3425 15.1586 20.8789 15.5045 20.8401 16.0248V22.6837C20.8871 23.2509 21.3566 23.5529 21.8923 23.5888C23.9094 23.4627 26.1164 23.7498 28.1107 23.5888C28.3757 23.5674 28.6562 23.478 28.8654 23.3151C28.8805 23.3034 29.039 23.1417 29.0457 23.1307ZM20.9401 13.2621H28.9895C28.9947 13.2621 29.0629 13.194 29.0629 13.1887V12.3568C29.0629 12.2528 28.973 11.9212 28.9404 11.7943C28.1927 8.87721 24.6602 7.77309 22.3357 9.69108C21.7843 10.146 20.9401 11.3862 20.9401 12.1122V13.2621ZM34.1274 30.2906C34.1071 30.2938 34.0094 30.3446 34.0029 30.3719L34.0285 31.3193C35.7493 32.0691 36.7254 33.8317 36.9412 35.6485C37.0022 36.1625 37.043 36.9985 36.9906 37.5088C36.9503 37.9008 36.6574 38.3534 36.2338 38.3667C28.659 38.3682 21.0977 38.4451 13.5256 38.3657C13.2577 38.3499 13.0987 38.0908 13.0657 37.8469C12.7983 35.8682 13.2005 33.2741 14.8564 31.9626C15.028 31.8267 15.8932 31.3725 15.9256 31.3192C15.9612 31.2609 15.9693 30.3604 15.9419 30.2732C15.9336 30.2467 15.8922 30.1927 15.8756 30.1927H15.1417C15.0117 30.1927 14.5509 30.0916 14.4179 30.0357C13.8942 29.8159 13.8623 29.4106 13.8937 28.8959C14.0026 27.1103 14.374 25.1207 14.5793 23.318C14.9227 20.3009 15.1306 17.1049 15.6123 14.1243C15.6579 13.8417 15.709 13.4677 16.0014 13.339C16.0316 13.3257 16.2533 13.2621 16.2671 13.2621H19.3742C19.3064 11.7116 19.7424 10.3152 20.7912 9.17507C23.5614 6.16355 27.9613 6.70226 29.9522 10.2442C30.3984 11.0381 30.5474 11.7459 30.6289 12.6503C30.6409 12.7838 30.5864 13.1819 30.6745 13.2407C31.594 13.333 32.5788 13.1906 33.4913 13.2621C34.2767 13.3237 34.3393 13.7361 34.4402 14.4173C34.6848 16.0678 34.7936 17.7852 34.9887 19.447C35.3725 22.7149 35.7783 25.9762 36.1989 29.2388C36.1481 29.6868 35.841 29.9788 35.437 30.1322C35.3188 30.1771 34.9637 30.2906 34.8613 30.2906C34.6483 30.2906 34.3193 30.2593 34.1274 30.2906Z" fill="white"></path>
    <path d="M35.7666 39.0005V41.8631C35.7666 41.9405 35.5691 42.2133 35.4994 42.281C34.8416 42.9201 32.7968 43.0148 32.2219 42.2271C32.166 42.1504 31.9988 41.7896 31.9988 41.7163V40.4685H18.0042V41.6673C18.0042 41.8024 17.8562 42.0987 17.7595 42.2055C17.1119 42.9207 15.1726 42.9744 14.4791 42.3053C14.4142 42.2426 14.1875 41.8686 14.1875 41.8142V39.0005H35.7666Z" fill="white"></path>
    <path d="M23.8654 26.0473C25.6194 25.9792 29.2376 25.9972 30.6294 27.1337C31.375 27.7423 31.881 29.2326 31.9465 30.1748C31.9596 30.3627 31.9274 30.3985 31.7361 30.3853C31.1404 30.3439 30.3475 30.0962 29.7175 30.0029C26.8933 29.5844 23.6518 29.5102 20.8236 29.905C19.9376 30.0287 19.0632 30.2387 18.1814 30.3851C18.0429 30.3494 18.1452 30.0097 18.1658 29.8895C18.2878 29.1772 18.5239 28.2655 18.9229 27.6617C19.8438 26.2683 22.3469 26.1063 23.8654 26.0473Z" fill="white"></path>
    <path d="M24.9391 32.3543C25.2417 32.2896 25.4404 32.5988 25.4922 32.8581L25.4902 36.9203C25.436 37.2382 24.7809 37.1971 24.6351 36.9448C24.5763 35.5735 24.628 34.1865 24.6086 32.8092C24.6247 32.6484 24.7734 32.3897 24.9391 32.3543Z" fill="white"></path>
    <path d="M24.3655 20.3573H25.7111C25.7654 20.3573 26.21 20.1944 26.2922 20.1555C27.1173 19.7654 27.4301 18.8596 27.1898 17.9978C26.9824 17.2538 26.3112 16.8393 25.5664 16.7833C24.8718 16.7308 24.0878 16.8065 23.3862 16.8091C23.2468 16.953 23.1397 17.1392 23.1402 17.3459C23.1896 18.7724 23.0816 20.2343 23.1405 21.6564C23.1432 21.7213 23.1453 22.021 23.2155 22.021H24.3655V20.3573ZM21.5433 15.8714C21.6432 15.7737 21.8498 15.708 21.9902 15.7068C23.9471 15.8256 26.0767 15.5554 28.0129 15.7068C28.3428 15.7326 28.6104 15.854 28.6249 16.2202L28.6238 22.5361C28.6053 22.7629 28.3856 22.9824 28.1591 23.0009L21.7705 22.9768C21.5994 22.9158 21.4937 22.8117 21.4071 22.6552C21.3601 20.4764 21.3688 18.2774 21.4026 16.0979C21.4508 16.0337 21.4902 15.9233 21.5433 15.8714Z" fill="white"></path>
    <path d="M24.3652 19.3297V17.8128H25.4662C25.482 17.8128 25.7377 17.8841 25.7717 17.8989C26.227 18.0957 26.2018 18.9917 25.7621 19.2343C25.7259 19.2542 25.5344 19.3297 25.5151 19.3297H24.3652Z" fill="white"></path>
  </g>
  <path d="M60.9342 33V15.2904H68.621C69.9272 15.2904 71.0325 15.5081 71.9368 15.9435C72.8411 16.3789 73.5277 17.0069 73.9966 17.8275C74.4655 18.6481 74.7 19.6445 74.7 20.8168C74.7 21.9723 74.4655 22.9687 73.9966 23.8061C73.5277 24.6267 72.8411 25.263 71.9368 25.7152C71.0325 26.1506 69.9272 26.3683 68.621 26.3683H64.1496V33H60.9342ZM64.1496 23.8312H68.1186C69.2573 23.8312 70.1198 23.58 70.7059 23.0776C71.2921 22.5585 71.5851 21.8049 71.5851 20.8168C71.5851 19.8287 71.2921 19.0835 70.7059 18.5811C70.1198 18.0787 69.2573 17.8275 68.1186 17.8275H64.1496V23.8312ZM80.4752 33.2512C79.5877 33.2512 78.7922 33.0837 78.0888 32.7488C77.4022 32.3971 76.858 31.9282 76.456 31.3421C76.0709 30.7559 75.8783 30.0945 75.8783 29.3576C75.8783 28.4533 76.1127 27.7415 76.5816 27.2224C77.0506 26.6865 77.8125 26.3013 78.8676 26.0669C79.9226 25.8324 81.3377 25.7152 83.1128 25.7152H84.3688V27.5238H83.138C82.3509 27.5238 81.6894 27.5573 81.1535 27.6243C80.6176 27.6746 80.1822 27.7667 79.8472 27.9006C79.5291 28.0179 79.2946 28.1853 79.1439 28.403C79.0099 28.6207 78.9429 28.8887 78.9429 29.2069C78.9429 29.7595 79.1355 30.2117 79.5207 30.5634C79.9059 30.915 80.4418 31.0909 81.1284 31.0909C81.681 31.0909 82.1667 30.9653 82.5853 30.7141C83.0207 30.4461 83.364 30.0861 83.6152 29.6339C83.8664 29.1818 83.992 28.6626 83.992 28.0765V25.1877C83.992 24.3503 83.8078 23.7475 83.4394 23.379C83.071 23.0106 82.4514 22.8264 81.5805 22.8264C80.8939 22.8264 80.1906 22.9353 79.4704 23.153C78.7503 23.3539 78.0219 23.6721 77.285 24.1075L76.3807 21.9723C76.8161 21.6709 77.3269 21.4113 77.913 21.1936C78.5159 20.9591 79.1439 20.7833 79.797 20.6661C80.4669 20.5321 81.0949 20.4651 81.681 20.4651C82.8868 20.4651 83.8748 20.6493 84.6452 21.0178C85.4323 21.3862 86.0184 21.9472 86.4036 22.7008C86.7887 23.4377 86.9813 24.3922 86.9813 25.5645V33H84.0423V30.3875H84.2432C84.126 30.9737 83.8916 31.4844 83.5399 31.9198C83.205 32.3385 82.7779 32.6651 82.2588 32.8995C81.7396 33.134 81.1451 33.2512 80.4752 33.2512ZM90.1684 33V20.7163H93.2331V23.6805H92.9819C93.2163 22.6757 93.6769 21.9137 94.3635 21.3946C95.0501 20.8587 95.9628 20.5489 97.1015 20.4651L98.0561 20.3898L98.2571 23.0525L96.4484 23.2283C95.4269 23.3288 94.6565 23.647 94.1374 24.1829C93.6182 24.702 93.3587 25.4389 93.3587 26.3934V33H90.1684ZM100.005 33V15.2904H103.145V25.9413H103.196L108.144 20.7163H111.937L105.758 27.2475V25.9413L112.289 33H108.446L103.196 27.5238H103.145V33H100.005ZM119.282 33.2512C117.892 33.2512 116.694 32.9916 115.69 32.4725C114.685 31.9533 113.906 31.2165 113.353 30.2619C112.818 29.3074 112.55 28.177 112.55 26.8707C112.55 25.598 112.809 24.4843 113.328 23.5298C113.864 22.5752 114.593 21.83 115.514 21.2941C116.452 20.7414 117.515 20.4651 118.704 20.4651C119.876 20.4651 120.881 20.7163 121.718 21.2187C122.556 21.7211 123.2 22.4329 123.653 23.3539C124.122 24.275 124.356 25.3719 124.356 26.6446V27.5741H115.087V25.7654H122.145L121.743 26.1422C121.743 25.0035 121.492 24.1326 120.99 23.5298C120.487 22.9101 119.767 22.6003 118.83 22.6003C118.126 22.6003 117.523 22.7678 117.021 23.1027C116.535 23.4209 116.158 23.8814 115.891 24.4843C115.639 25.0705 115.514 25.7738 115.514 26.5944V26.7702C115.514 27.6913 115.656 28.4533 115.941 29.0562C116.225 29.659 116.652 30.1112 117.222 30.4126C117.791 30.7141 118.495 30.8648 119.332 30.8648C120.019 30.8648 120.705 30.7643 121.392 30.5634C122.078 30.3457 122.706 30.0107 123.276 29.5586L124.155 31.6686C123.569 32.1543 122.832 32.5395 121.944 32.8242C121.057 33.1089 120.169 33.2512 119.282 33.2512ZM132.42 33.2512C130.779 33.2512 129.557 32.8409 128.753 32.0203C127.949 31.1997 127.547 30.0023 127.547 28.4282V23.0776H125.186V20.7163H127.547V17.0488H130.687V20.7163H134.405V23.0776H130.687V28.2523C130.687 29.0562 130.863 29.659 131.215 30.061C131.566 30.4629 132.136 30.6638 132.923 30.6638C133.157 30.6638 133.4 30.6387 133.651 30.5885C133.903 30.5215 134.162 30.4545 134.43 30.3875L134.907 32.6986C134.606 32.866 134.221 33 133.752 33.1005C133.3 33.201 132.856 33.2512 132.42 33.2512ZM142.84 33.2512C141.919 33.2512 141.031 33.1675 140.177 33C139.34 32.8493 138.561 32.6232 137.841 32.3218C137.138 32.0203 136.51 31.6603 135.957 31.2416L136.937 28.7045C137.489 29.0897 138.067 29.4246 138.67 29.7093C139.29 29.9772 139.943 30.1866 140.629 30.3373C141.333 30.4713 142.07 30.5382 142.84 30.5382C144.163 30.5382 145.126 30.3205 145.729 29.8851C146.332 29.433 146.633 28.8552 146.633 28.1518C146.633 27.7667 146.541 27.4401 146.357 27.1722C146.173 26.8875 145.871 26.6446 145.452 26.4437C145.034 26.2427 144.481 26.0753 143.795 25.9413L141.031 25.3635C139.44 25.0286 138.251 24.4676 137.464 23.6805C136.694 22.8766 136.309 21.8216 136.309 20.5154C136.309 19.4101 136.602 18.4471 137.188 17.6266C137.774 16.806 138.586 16.1696 139.625 15.7174C140.663 15.2653 141.86 15.0392 143.217 15.0392C144.021 15.0392 144.791 15.1229 145.528 15.2904C146.281 15.4411 146.968 15.6756 147.588 15.9938C148.224 16.2952 148.777 16.6636 149.246 17.099L148.266 19.5106C147.563 18.9244 146.792 18.489 145.955 18.2043C145.118 17.9029 144.196 17.7522 143.192 17.7522C142.421 17.7522 141.76 17.861 141.207 18.0787C140.655 18.2964 140.227 18.6062 139.926 19.0082C139.641 19.3933 139.499 19.8539 139.499 20.3898C139.499 20.9926 139.7 21.4783 140.102 21.8467C140.504 22.1984 141.19 22.4747 142.162 22.6757L144.9 23.2534C146.558 23.6051 147.789 24.1578 148.592 24.9114C149.413 25.665 149.823 26.6698 149.823 27.9258C149.823 28.9808 149.539 29.9102 148.969 30.7141C148.4 31.5179 147.588 32.1459 146.533 32.5981C145.494 33.0335 144.263 33.2512 142.84 33.2512ZM152.282 33V15.2904H155.422V23.1781H155.07C155.438 22.2905 156.008 21.6206 156.778 21.1685C157.565 20.6996 158.453 20.4651 159.441 20.4651C160.429 20.4651 161.241 20.6493 161.877 21.0178C162.514 21.3862 162.991 21.9472 163.309 22.7008C163.627 23.4377 163.787 24.3755 163.787 25.5142V33H160.647V25.665C160.647 25.0286 160.563 24.5094 160.395 24.1075C160.245 23.7056 160.002 23.4125 159.667 23.2283C159.349 23.0274 158.938 22.9269 158.436 22.9269C157.833 22.9269 157.306 23.0609 156.853 23.3288C156.401 23.58 156.05 23.9484 155.798 24.4341C155.547 24.903 155.422 25.4556 155.422 26.092V33H152.282ZM172.578 33.2512C171.305 33.2512 170.199 32.9916 169.262 32.4725C168.324 31.9533 167.595 31.2165 167.076 30.2619C166.557 29.2906 166.298 28.1518 166.298 26.8456C166.298 25.5394 166.557 24.409 167.076 23.4544C167.595 22.4998 168.324 21.763 169.262 21.2438C170.199 20.7247 171.305 20.4651 172.578 20.4651C173.85 20.4651 174.956 20.7247 175.893 21.2438C176.831 21.763 177.56 22.4998 178.079 23.4544C178.598 24.409 178.858 25.5394 178.858 26.8456C178.858 28.1518 178.598 29.2906 178.079 30.2619C177.56 31.2165 176.831 31.9533 175.893 32.4725C174.956 32.9916 173.85 33.2512 172.578 33.2512ZM172.578 30.8648C173.515 30.8648 174.269 30.5299 174.838 29.86C175.408 29.1734 175.692 28.1686 175.692 26.8456C175.692 25.5059 175.408 24.5094 174.838 23.8563C174.269 23.1865 173.515 22.8515 172.578 22.8515C171.64 22.8515 170.886 23.1865 170.317 23.8563C169.747 24.5094 169.463 25.5059 169.463 26.8456C169.463 28.1686 169.747 29.1734 170.317 29.86C170.886 30.5299 171.64 30.8648 172.578 30.8648ZM181.449 37.5216V20.7163H184.514V23.3037H184.263C184.514 22.4496 185.025 21.763 185.795 21.2438C186.582 20.7247 187.495 20.4651 188.533 20.4651C189.605 20.4651 190.543 20.7247 191.346 21.2438C192.167 21.763 192.803 22.4998 193.256 23.4544C193.708 24.3922 193.934 25.5226 193.934 26.8456C193.934 28.1518 193.708 29.2906 193.256 30.2619C192.803 31.2165 192.175 31.9533 191.372 32.4725C190.568 32.9916 189.622 33.2512 188.533 33.2512C187.511 33.2512 186.616 33 185.845 32.4976C185.075 31.9785 184.556 31.3086 184.288 30.488H184.589V37.5216H181.449ZM187.654 30.8648C188.592 30.8648 189.345 30.5299 189.915 29.86C190.484 29.1734 190.769 28.1686 190.769 26.8456C190.769 25.5059 190.484 24.5094 189.915 23.8563C189.345 23.1865 188.592 22.8515 187.654 22.8515C186.716 22.8515 185.962 23.1865 185.393 23.8563C184.824 24.5094 184.539 25.5059 184.539 26.8456C184.539 28.1686 184.824 29.1734 185.393 29.86C185.962 30.5299 186.716 30.8648 187.654 30.8648Z" fill="white"></path>
  <defs>
    <linearGradient id="paint0_linear_42_104" x1="12.4867" y1="-41.2727" x2="31.7549" y2="60.7613" gradientUnits="userSpaceOnUse">
      <stop stop-color="#EF0038"></stop>
      <stop offset="1" stop-color="#FC003B"></stop>
    </linearGradient>
  </defs>
</svg>
